<svg width="13" height="13" viewBox="0 0 13 13" fill="none" xmlns="http://www.w3.org/2000/svg">
<circle cx="6.5" cy="6.5" r="6.5" fill="#BBB8F3"/>
<path d="M5.90909 3.54547V3.54547C6.23544 3.21912 6.76456 3.21912 7.09091 3.54547V3.54547V9.10001C7.09091 9.42636 6.82635 9.69092 6.5 9.69092V9.69092C6.17365 9.69092 5.90909 9.42636 5.90909 9.10001V3.54547Z" fill="white"/>
<path d="M6.7373 4.34177L5.90909 3.54546L3.96728 5.5651C3.74738 5.79381 3.75453 6.15747 3.98323 6.37736V6.37736C4.21194 6.59725 4.5756 6.59011 4.79549 6.3614L6.7373 4.34177Z" fill="white"/>
<path d="M6.26996 4.21982L7.09089 3.54544L8.8992 5.74672C9.08543 5.97341 9.05262 6.30815 8.82593 6.49437V6.49437C8.59923 6.6806 8.2645 6.64779 8.07827 6.4211L6.26996 4.21982Z" fill="white"/>
</svg>
